<svg width="36" height="36" viewBox="0 0 36 36" fill="none" xmlns="http://www.w3.org/2000/svg">
<path d="M11.3895 26.9999H19.2082C23.2672 26.9999 25.7063 24.9569 25.7063 21.6089C25.7063 19.1294 23.994 17.2979 21.4222 17.0324V16.8074C23.2942 16.4924 24.7568 14.7149 24.7568 12.7214C24.7568 9.79638 22.608 7.97388 19.0372 7.97388H11.3895V26.9999ZM14.3437 16.0311V10.4804H18.3487C20.538 10.4804 21.8182 11.5086 21.8182 13.2636C21.8182 15.0681 20.4592 16.0311 17.8492 16.0311H14.3437ZM14.3437 24.4956V18.3644H18.4432C21.2242 18.3644 22.689 19.4061 22.689 21.3974C22.689 23.4134 21.2782 24.4956 18.6142 24.4956H14.3437Z" fill="black"/>
<path d="M0 9C0 6.61305 0.948212 4.32387 2.63604 2.63604C4.32387 0.948212 6.61305 0 9 0L27 0C29.3869 0 31.6761 0.948212 33.364 2.63604C35.0518 4.32387 36 6.61305 36 9V27C36 29.3869 35.0518 31.6761 33.364 33.364C31.6761 35.0518 29.3869 36 27 36H9C6.61305 36 4.32387 35.0518 2.63604 33.364C0.948212 31.6761 0 29.3869 0 27V9ZM9 2.25C7.20979 2.25 5.4929 2.96116 4.22703 4.22703C2.96116 5.4929 2.25 7.20979 2.25 9V27C2.25 28.7902 2.96116 30.5071 4.22703 31.773C5.4929 33.0388 7.20979 33.75 9 33.75H27C28.7902 33.75 30.5071 33.0388 31.773 31.773C33.0388 30.5071 33.75 28.7902 33.75 27V9C33.75 7.20979 33.0388 5.4929 31.773 4.22703C30.5071 2.96116 28.7902 2.25 27 2.25H9Z" fill="black"/>
</svg>
