<svg width="24" height="24" viewBox="0 0 20 20" fill="none" xmlns="http://www.w3.org/2000/svg">
<path d="M8.5175 2.08375C8.845 1.65 9.3525 1.25 10 1.25C10.6475 1.25 11.155 1.65 11.4825 2.08375C11.8187 2.5275 12.045 3.1 12.12 3.6675C12.195 4.23 12.1325 4.8675 11.7863 5.38625C11.4175 5.9375 10.7987 6.25 10 6.25C9.2 6.25 8.5825 5.9375 8.21375 5.38625C7.86875 4.86625 7.805 4.22875 7.88 3.6675C7.955 3.1 8.18125 2.5275 8.5175 2.08375ZM9.255 4.6925C9.355 4.8425 9.55 5 10 5C10.45 5 10.645 4.84375 10.745 4.6925C10.8687 4.50875 10.93 4.20875 10.88 3.8325C10.8331 3.47335 10.6978 3.13145 10.4862 2.8375C10.2825 2.56875 10.1025 2.5 10 2.5C9.8975 2.5 9.7175 2.56875 9.51375 2.8375C9.30215 3.13145 9.16685 3.47335 9.12 3.8325C9.07 4.2075 9.1325 4.5075 9.255 4.6925ZM2.5 10C2.5 9.33696 2.76339 8.70107 3.23223 8.23223C3.70107 7.76339 4.33696 7.5 5 7.5H15C15.663 7.5 16.2989 7.76339 16.7678 8.23223C17.2366 8.70107 17.5 9.33696 17.5 10V16.25H18.125C18.2908 16.25 18.4497 16.3158 18.5669 16.4331C18.6842 16.5503 18.75 16.7092 18.75 16.875C18.75 17.0408 18.6842 17.1997 18.5669 17.3169C18.4497 17.4342 18.2908 17.5 18.125 17.5H1.875C1.70924 17.5 1.55027 17.4342 1.43306 17.3169C1.31585 17.1997 1.25 17.0408 1.25 16.875C1.25 16.7092 1.31585 16.5503 1.43306 16.4331C1.55027 16.3158 1.70924 16.25 1.875 16.25H2.5V10ZM3.75 16.25H16.25V12.525C16.1375 12.6287 16.0213 12.735 15.9 12.8425C15.5 13.1975 15.0437 13.5675 14.5887 13.85C14.1587 14.1187 13.635 14.375 13.125 14.375C12.215 14.375 11.635 13.7375 11.2563 13.32C11.2305 13.292 11.2047 13.2641 11.1788 13.2362C10.735 12.7537 10.4475 12.5 10 12.5C9.5525 12.5 9.265 12.7537 8.82125 13.2362L8.74375 13.32C8.365 13.7375 7.785 14.375 6.875 14.375C6.3825 14.375 5.86625 14.1125 5.45 13.8487C4.98867 13.5475 4.55038 13.2125 4.13875 12.8462C4.00758 12.7314 3.87798 12.6147 3.75 12.4962V16.25ZM3.75 10.75C4.13812 11.1507 4.54219 11.5356 4.96125 11.9037C5.34375 12.2375 5.7475 12.5587 6.11625 12.7912C6.51625 13.0437 6.7675 13.125 6.875 13.125C7.1975 13.125 7.415 12.9175 7.90125 12.3887L7.905 12.385C8.325 11.93 8.95 11.25 10 11.25C11.05 11.25 11.675 11.93 12.095 12.385L12.0988 12.3887C12.5863 12.9175 12.8025 13.125 13.125 13.125C13.2625 13.125 13.5325 13.0375 13.9262 12.79C14.3309 12.5269 14.7138 12.2318 15.0712 11.9075C15.4815 11.5424 15.8749 11.1586 16.25 10.7575V10C16.25 9.66848 16.1183 9.35054 15.8839 9.11612C15.6495 8.8817 15.3315 8.75 15 8.75H5C4.66848 8.75 4.35054 8.8817 4.11612 9.11612C3.8817 9.35054 3.75 9.66848 3.75 10V10.75Z" />
</svg>
