<svg width="30" height="30" viewBox="0 0 30 30" fill="none" xmlns="http://www.w3.org/2000/svg">
<path d="M1.875 8.90625C1.875 7.095 3.345 5.625 5.15625 5.625H24.8438C26.655 5.625 28.125 7.095 28.125 8.90625V21.0938C28.125 21.964 27.7793 22.7986 27.1639 23.4139C26.5486 24.0293 25.714 24.375 24.8438 24.375H5.15625C4.28601 24.375 3.45141 24.0293 2.83606 23.4139C2.2207 22.7986 1.875 21.964 1.875 21.0938V8.90625ZM5.15625 7.5C4.78329 7.5 4.4256 7.64816 4.16188 7.91188C3.89816 8.1756 3.75 8.53329 3.75 8.90625V21.0938C3.75 21.87 4.38 22.5 5.15625 22.5H24.8438C25.2167 22.5 25.5744 22.3518 25.8381 22.0881C26.1018 21.8244 26.25 21.4667 26.25 21.0938V8.90625C26.25 8.53329 26.1018 8.1756 25.8381 7.91188C25.5744 7.64816 25.2167 7.5 24.8438 7.5H5.15625ZM17.8125 11.25C17.5639 11.25 17.3254 11.3488 17.1496 11.5246C16.9738 11.7004 16.875 11.9389 16.875 12.1875C16.875 12.4361 16.9738 12.6746 17.1496 12.8504C17.3254 13.0262 17.5639 13.125 17.8125 13.125H23.4375C23.6861 13.125 23.9246 13.0262 24.1004 12.8504C24.2762 12.6746 24.375 12.4361 24.375 12.1875C24.375 11.9389 24.2762 11.7004 24.1004 11.5246C23.9246 11.3488 23.6861 11.25 23.4375 11.25H17.8125ZM17.8125 16.875C17.5639 16.875 17.3254 16.9738 17.1496 17.1496C16.9738 17.3254 16.875 17.5639 16.875 17.8125C16.875 18.0611 16.9738 18.2996 17.1496 18.4754C17.3254 18.6512 17.5639 18.75 17.8125 18.75H23.4375C23.6861 18.75 23.9246 18.6512 24.1004 18.4754C24.2762 18.2996 24.375 18.0611 24.375 17.8125C24.375 17.5639 24.2762 17.3254 24.1004 17.1496C23.9246 16.9738 23.6861 16.875 23.4375 16.875H17.8125ZM9.86438 14.4638C10.1985 14.4638 10.5294 14.3979 10.8381 14.2701C11.1468 14.1422 11.4273 13.9548 11.6635 13.7185C11.8998 13.4823 12.0872 13.2018 12.2151 12.8931C12.3429 12.5844 12.4088 12.2535 12.4088 11.9194C12.4088 11.5852 12.3429 11.2544 12.2151 10.9457C12.0872 10.637 11.8998 10.3565 11.6635 10.1202C11.4273 9.88396 11.1468 9.69655 10.8381 9.56868C10.5294 9.44081 10.1985 9.375 9.86438 9.375C9.18957 9.375 8.54239 9.64307 8.06523 10.1202C7.58807 10.5974 7.32 11.2446 7.32 11.9194C7.32 12.5942 7.58807 13.2414 8.06523 13.7185C8.54239 14.1957 9.18957 14.4638 9.86438 14.4638V14.4638ZM7.23375 15.735C6.80708 15.735 6.39789 15.9045 6.09619 16.2062C5.79449 16.5079 5.625 16.9171 5.625 17.3438C5.62506 18.042 5.85853 18.7203 6.28829 19.2706C6.71805 19.821 7.31944 20.2119 7.99687 20.3812L8.09625 20.4075C9.25875 20.6981 10.4719 20.6981 11.6325 20.4075L11.7337 20.3831C12.4112 20.2138 13.0126 19.8229 13.4423 19.2725C13.8721 18.7221 14.1056 18.0439 14.1056 17.3456C14.1059 17.1342 14.0644 16.9248 13.9837 16.7294C13.903 16.534 13.7845 16.3564 13.6351 16.2069C13.4857 16.0573 13.3083 15.9386 13.113 15.8576C12.9176 15.7767 12.7083 15.735 12.4969 15.735H7.23375Z" fill="black"/>
</svg>
