<svg width="36" height="36" viewBox="0 0 36 36" fill="none" xmlns="http://www.w3.org/2000/svg">
<path d="M18 0C8.05894 0 0 8.0588 0 18C0 27.9412 8.05894 36 18 36C27.9412 36 36 27.9412 36 18C36 8.0588 27.9412 0 18 0ZM3.86775 18.1876L17.8123 32.1323C10.1552 32.0324 3.96745 25.8449 3.86775 18.1876ZM21.1635 31.779L4.221 14.8365C5.65791 8.55337 11.2814 3.86536 18 3.86536C22.6965 3.86536 26.8573 6.15656 29.4276 9.68161L27.4705 11.4083C25.3856 8.41838 21.9215 6.46158 18 6.46158C13.0071 6.46158 8.75531 9.63295 7.14811 14.0712L21.9291 28.8519C25.5185 27.5521 28.2791 24.522 29.2036 20.7692H23.0771V18H32.1348C32.1348 24.7188 27.4469 30.3422 21.1636 31.7789L21.1635 31.779Z" fill="#744C9E"/>
</svg>
