<svg width="36" height="36" viewBox="0 0 36 36" fill="none" xmlns="http://www.w3.org/2000/svg">
<g clip-path="url(#clip0)">
<path d="M21.0765 4.12651L28.479 8.40151C28.8231 8.03915 29.2469 7.76196 29.7167 7.59192C30.1866 7.42188 30.6896 7.36366 31.1859 7.4219C31.6822 7.48013 32.1581 7.6532 32.5758 7.92739C32.9936 8.20159 33.3417 8.56935 33.5925 9.00151C33.8404 9.43448 33.9842 9.91913 34.0126 10.4172C34.041 10.9153 33.9533 11.4132 33.7564 11.8715C33.5594 12.3299 33.2586 12.7362 32.8777 13.0584C32.4968 13.3806 32.0462 13.6098 31.5615 13.728V22.2765C32.0477 22.392 32.5 22.6198 32.8822 22.9416C33.2645 23.2634 33.566 23.6704 33.7625 24.1298C33.9591 24.5891 34.0453 25.0882 34.0142 25.5869C33.9832 26.0856 33.8356 26.5701 33.5835 27.0015C33.3289 27.4411 32.9736 27.8141 32.547 28.0899C32.1203 28.3657 31.6343 28.5364 31.1289 28.5881C30.6235 28.6398 30.113 28.5709 29.6394 28.3872C29.1657 28.2034 28.7424 27.91 28.404 27.531L21.0465 31.779C21.1929 32.22 21.2418 32.6875 21.1899 33.1492C21.138 33.6109 20.9864 34.0559 20.7457 34.4533C20.505 34.8507 20.1809 35.1912 19.7958 35.4511C19.4106 35.711 18.9737 35.8843 18.515 35.9588C18.0564 36.0334 17.5871 36.0075 17.1395 35.8829C16.6918 35.7583 16.2766 35.5381 15.9224 35.2373C15.5682 34.9366 15.2835 34.5626 15.088 34.1411C14.8925 33.7196 14.7908 33.2606 14.79 32.796C14.79 32.4885 14.8335 32.181 14.922 31.8825L7.51802 27.612C7.17336 27.9721 6.74956 28.247 6.28021 28.4149C5.81086 28.5828 5.30886 28.6391 4.81399 28.5793C4.31911 28.5195 3.84496 28.3453 3.4291 28.0705C3.01324 27.7956 2.66711 27.4277 2.41812 26.9959C2.16914 26.564 2.02415 26.0801 1.99464 25.5825C1.96513 25.0849 2.05191 24.5873 2.24811 24.129C2.44431 23.6708 2.74453 23.2646 3.12499 22.9425C3.50545 22.6204 3.95568 22.3914 4.44002 22.2735L4.44152 13.725C3.95579 13.6087 3.50389 13.3806 3.12173 13.0591C2.73957 12.7375 2.43768 12.3312 2.24007 11.8724C2.04246 11.4137 1.95457 10.9152 1.98337 10.4166C2.01218 9.91796 2.1569 9.43291 2.40602 9.00001C2.65609 8.56761 3.00348 8.19944 3.42064 7.92471C3.83779 7.64997 4.31323 7.47623 4.80924 7.41727C5.30524 7.35831 5.80816 7.41575 6.2781 7.58503C6.74804 7.75432 7.17206 8.03079 7.51652 8.39251L14.9235 4.11751C14.7818 3.63894 14.7538 3.13392 14.8416 2.64261C14.9295 2.1513 15.1307 1.68727 15.4295 1.28745C15.7282 0.887631 16.1162 0.563054 16.5624 0.339548C17.0087 0.116043 17.5009 -0.000222126 18 5.92282e-06C18.5002 -0.000955598 18.9938 0.115167 19.4411 0.339083C19.8884 0.563 20.2771 0.888496 20.5761 1.28953C20.8751 1.69057 21.076 2.15601 21.1629 2.64863C21.2498 3.14125 21.2202 3.64737 21.0765 4.12651V4.12651ZM20.304 5.44201C20.2765 5.47249 20.2475 5.50153 20.217 5.52901L29.9085 22.314C29.9475 22.3005 29.9925 22.29 30.0315 22.2795V13.719C29.6231 13.6177 29.2386 13.437 28.9 13.187C28.5615 12.9371 28.2755 12.6229 28.0585 12.2623C27.8415 11.9018 27.6976 11.502 27.6351 11.0859C27.5727 10.6697 27.5929 10.2454 27.6945 9.83701L27.723 9.72901L20.304 5.44201V5.44201ZM15.7815 5.53051L15.6915 5.44051L8.27252 9.71851C8.38927 10.1229 8.42519 10.5464 8.37823 10.9646C8.33126 11.3829 8.20234 11.7879 7.99882 12.1563C7.79531 12.5248 7.52119 12.8495 7.19212 13.112C6.86306 13.3744 6.4855 13.5695 6.08102 13.686L5.96702 13.7175V22.2795L6.09302 22.314L15.7845 5.52901L15.7815 5.53051V5.53051ZM18.8955 6.29101C18.3105 6.45901 17.691 6.45901 17.1075 6.29101L7.41752 23.0745C7.85852 23.499 8.17052 24.042 8.31752 24.636H27.684C27.8295 24.039 28.1445 23.4945 28.5885 23.07L18.8955 6.29101ZM20.3745 30.6315L27.744 26.3745C27.722 26.3043 27.703 26.2333 27.687 26.1615H8.31302L8.28152 26.286L15.69 30.564C15.9888 30.253 16.3476 30.0059 16.7446 29.8375C17.1417 29.6692 17.5688 29.5831 18 29.5845C18.9405 29.5845 19.785 29.988 20.3745 30.6315Z" fill="black"/>
</g>
<defs>
<clipPath id="clip0">
<rect width="36" height="36" fill="white"/>
</clipPath>
</defs>
</svg>
