<svg width="36" height="36" viewBox="0 0 36 36" fill="none" xmlns="http://www.w3.org/2000/svg">
<path d="M0 0H36V36H0V0Z" fill="#F7DF1E"/>
<path d="M9.46575 30.0845L12.2206 28.4172C12.7522 29.3596 13.2356 30.1569 14.3954 30.1569C15.507 30.1569 16.208 29.7221 16.208 28.0307V16.5278H19.591V28.0785C19.591 31.5824 17.5371 33.1774 14.5403 33.1774C11.834 33.1774 10.2631 31.7758 9.46561 30.0842" fill="black"/>
<path d="M21.4286 29.7219L24.1831 28.127C24.9083 29.3112 25.8508 30.1811 27.5181 30.1811C28.92 30.1811 29.8138 29.4803 29.8138 28.5136C29.8138 27.3537 28.8955 26.9428 27.3489 26.2664L26.5033 25.9036C24.0625 24.8648 22.4435 23.5598 22.4435 20.805C22.4435 18.2675 24.3766 16.3342 27.3974 16.3342C29.5481 16.3342 31.0947 17.0835 32.2062 19.0408L29.572 20.7326C28.992 19.6935 28.3639 19.2827 27.3973 19.2827C26.4064 19.2827 25.7781 19.911 25.7781 20.7326C25.7781 21.7474 26.4064 22.1585 27.8563 22.7868L28.702 23.1492C31.5778 24.3818 33.1968 25.6383 33.1968 28.4654C33.1968 31.5105 30.8045 33.1777 27.5905 33.1777C24.4491 33.1777 22.4191 31.6795 21.4284 29.722" fill="black"/>
</svg>
