<svg className="Location_icon" width="24" height="24" viewBox="0 0 22 22" fill="none" xmlns="http://www.w3.org/2000/svg">
<path d="M11 12C13.0711 12 14.75 10.6569 14.75 9C14.75 7.34315 13.0711 6 11 6C8.92893 6 7.25 7.34315 7.25 9C7.25 10.6569 8.92893 12 11 12Z" stroke="black" stroke-width="2" stroke-linecap="round" stroke-linejoin="round"/>
<path d="M11 1C8.34784 1 5.8043 1.84285 3.92893 3.34315C2.05357 4.84344 1 6.87827 1 9C1 10.892 1.5025 12.13 2.875 13.5L11 21L19.125 13.5C20.4975 12.13 21 10.892 21 9C21 6.87827 19.9464 4.84344 18.0711 3.34315C16.1957 1.84285 13.6522 1 11 1V1Z" stroke="black" stroke-width="2" stroke-linecap="round" stroke-linejoin="round"/>
</svg>
