<svg width="36" height="36" viewBox="2 0 32 32" fill="none" xmlns="http://www.w3.org/2000/svg">
<path d="M18 19.5449C19.4788 19.5449 20.6775 18.3462 20.6775 16.8674C20.6775 15.3887 19.4788 14.1899 18 14.1899C16.5213 14.1899 15.3225 15.3887 15.3225 16.8674C15.3225 18.3462 16.5213 19.5449 18 19.5449Z" fill="black"/>
<path d="M10.503 22.191L9.91052 22.0395C5.50952 20.928 2.98502 19.038 2.98502 16.8615C2.98502 14.6835 5.51102 12.795 9.91052 11.6835L10.503 11.5335L10.6695 12.12C11.1143 13.6555 11.6842 15.152 12.3735 16.5945L12.501 16.8615L12.3735 17.1285C11.6835 18.573 11.112 20.07 10.6695 21.606L10.503 22.191ZM9.63752 13.0485C6.29402 13.9905 4.24052 15.4275 4.24052 16.8615C4.24052 18.2925 6.29252 19.731 9.63752 20.6715C10.047 19.3695 10.542 18.096 11.115 16.8615C10.5379 15.6249 10.0443 14.3511 9.63752 13.0485ZM25.4955 22.191L25.3305 21.603C24.8845 20.0671 24.3141 18.5702 23.625 17.127L23.4975 16.8615L23.625 16.593C24.315 15.1515 24.8835 13.653 25.3305 12.117L25.4955 11.532L26.088 11.682C30.4905 12.7935 33.0135 14.682 33.0135 16.8615C33.0135 19.0395 30.489 20.928 26.088 22.0395L25.4955 22.191ZM24.8805 16.8615C25.4805 18.1605 25.98 19.4385 26.361 20.6715C29.706 19.731 31.7595 18.2925 31.7595 16.8615C31.7595 15.4275 29.7075 13.992 26.361 13.0485C25.9519 14.3507 25.4574 15.6244 24.8805 16.8615Z" fill="black"/>
<path d="M9.6285 13.0425L9.4635 12.4575C8.2245 8.0955 8.5995 4.971 10.494 3.882C12.3465 2.8095 15.327 4.077 18.4485 7.2795L18.8745 7.7175L18.4485 8.154C17.3398 9.30703 16.3265 10.5481 15.4185 11.865L15.249 12.108L14.955 12.132C13.3584 12.2574 11.7746 12.5127 10.2195 12.8955L9.6285 13.0425ZM12.0015 4.749C11.6655 4.749 11.3685 4.8225 11.118 4.9665C9.876 5.682 9.657 8.1735 10.512 11.5365C11.8485 11.241 13.197 11.0295 14.556 10.911C15.3428 9.79508 16.2011 8.73135 17.1255 7.7265C15.171 5.826 13.326 4.749 12.0015 4.749ZM23.997 30.225C22.215 30.225 19.926 28.881 17.55 26.442L17.1255 26.0055L17.55 25.5705C18.6589 24.4156 19.6727 23.1731 20.5815 21.855L20.7495 21.615L21.0405 21.5865C22.6377 21.4633 24.222 21.209 25.7775 20.826L26.37 20.676L26.5365 21.2625C27.7695 25.6215 27.396 28.7505 25.5045 29.8395C25.0452 30.0998 24.5249 30.2329 23.997 30.225ZM18.8745 25.995C20.8275 27.8955 22.674 28.974 23.997 28.974C24.3345 28.974 24.6315 28.899 24.8805 28.7565C26.124 28.0395 26.3445 25.5435 25.4865 22.1805C24.1515 22.4775 22.8015 22.6905 21.4395 22.809C20.6561 23.9267 19.7992 24.991 18.8745 25.995Z" fill="black"/>
<path d="M26.37 13.0424L25.7775 12.8939C24.2221 12.51 22.6378 12.2546 21.0405 12.1304L20.7495 12.1049L20.5815 11.8619C19.6739 10.5443 18.66 9.30316 17.55 8.15093L17.1255 7.71443L17.55 7.27943C20.67 4.07842 23.649 2.81092 25.5045 3.88192C27.3975 4.97242 27.774 8.09693 26.5365 12.4574L26.37 13.0424ZM21.4395 10.9109C22.8705 11.0384 24.2265 11.2529 25.4865 11.5364C26.343 8.17343 26.124 5.68192 24.8805 4.96492C23.6445 4.24942 21.318 5.34442 18.8745 7.72643C19.7985 8.73143 20.6565 9.79343 21.4395 10.9109ZM12.0015 30.2249C11.4737 30.2325 10.9534 30.0994 10.494 29.8394C8.59951 28.7504 8.22451 25.6229 9.46201 21.2624L9.62401 20.6759L10.2165 20.8259C11.6625 21.1904 13.2555 21.4469 14.9535 21.5864L15.2445 21.6149L15.414 21.8549C16.32 23.1719 17.334 24.4154 18.444 25.5704L18.87 26.0054L18.444 26.4419C16.0695 28.8824 13.7805 30.2249 12.0015 30.2249ZM10.512 22.1819C9.65701 25.5449 9.87601 28.0409 11.118 28.7579C12.3555 29.4629 14.6745 28.3754 17.1255 25.9949C16.2014 24.9898 15.3432 23.9261 14.556 22.8104C13.1957 22.6901 11.8447 22.4802 10.512 22.1819Z" fill="black"/>
<path d="M18 22.9696C16.9695 22.9696 15.912 22.9261 14.85 22.8376L14.556 22.8121L14.3865 22.5691C13.7876 21.7079 13.2242 20.8227 12.6975 19.9156C12.1747 19.006 11.6888 18.0758 11.241 17.1271L11.115 16.8616L11.241 16.5931C11.6895 15.6451 12.174 14.7151 12.6975 13.8061C13.218 12.9121 13.7865 12.0181 14.3865 11.1511L14.556 10.9111L14.85 10.8841C16.9453 10.7086 19.0517 10.7086 21.147 10.8841L21.438 10.9126L21.6075 11.1526C22.8072 12.8757 23.8608 14.696 24.7575 16.5946L24.882 16.8631L24.7575 17.1286C23.8633 19.0284 22.8095 20.8489 21.6075 22.5706L21.438 22.8136L21.147 22.8391C20.088 22.9246 19.029 22.9696 18 22.9696ZM15.249 21.6136C17.1015 21.7531 18.8985 21.7531 20.7495 21.6136C21.7828 20.1004 22.7014 18.5119 23.4975 16.8616C22.7042 15.2097 21.7855 13.6211 20.7495 12.1096C18.9187 11.9686 17.0798 11.9686 15.249 12.1096C14.2121 13.6205 13.2934 15.2092 12.501 16.8616C13.2988 18.511 14.2173 20.0993 15.249 21.6136Z" fill="black"/>
</svg>
