<svg width="261" height="289" viewBox="0 0 261 289" fill="none" xmlns="http://www.w3.org/2000/svg">
<g filter="url(#filter0_d)">
<path d="M54.8137 0L253 30.8755L203.364 274L0 239.637L54.8137 0Z" fill="white"/>
</g>
<path d="M110.185 20.9749L112.023 21.2383L107.473 31.6528L104.021 31.1577L103.248 19.9801L105.086 20.2436L105.621 29.8039L106.413 29.9175L110.185 20.9749ZM111.492 32.2291L112.871 24.3488L114.597 24.5963L113.218 32.4767L111.492 32.2291ZM113.105 23.0091L113.422 21.1967L115.148 21.4442L114.831 23.2567L113.105 23.0091ZM121.199 32.167L121.651 32.1833L121.459 33.4645C120.213 33.5335 119.125 33.5014 118.196 33.3682C117.024 33.2001 116.236 32.7585 115.83 32.0434C115.436 31.3298 115.362 30.269 115.608 28.8611C116.097 26.0662 117.487 24.833 119.778 25.1616C121.995 25.4795 122.894 26.8416 122.473 29.2477L122.147 30.4611L117.237 29.7571C117.134 30.41 117.192 30.9086 117.414 31.2526C117.635 31.5967 118.12 31.8225 118.87 31.93C119.62 32.0375 120.396 32.1165 121.199 32.167ZM120.795 28.9101C120.931 28.1326 120.898 27.5733 120.698 27.2323C120.511 26.8822 120.121 26.6648 119.53 26.58C118.939 26.4952 118.477 26.596 118.146 26.8824C117.825 27.1702 117.594 27.6864 117.453 28.4309L120.795 28.9101ZM124.116 25.9613L125.811 26.2044L125.94 32.7984L126.257 32.8438L128.856 26.8026L130.63 27.0569L131.04 33.5297L131.356 33.5751L133.714 27.3377L135.424 27.5829L132.367 35.2225L129.627 34.8296L129.337 29.2466L127.156 34.4753L124.416 34.0824L124.116 25.9613ZM141.629 32.6086L140.956 36.4542L139.198 36.2021L141.087 25.406L145.204 25.9965C147.654 26.3478 148.679 27.6687 148.278 29.9592C148.009 31.4933 147.236 32.4487 145.958 32.8255L147.006 37.3217L145.074 37.0447L144.179 32.9742L141.629 32.6086ZM146.47 29.7161C146.696 28.4237 146.186 27.6882 144.94 27.5095L142.58 27.1711L141.893 31.0956L144.285 31.4385C144.918 31.5293 145.414 31.4173 145.772 31.1025C146.132 30.7771 146.365 30.315 146.47 29.7161ZM154.545 36.9488L154.997 36.9651L154.805 38.2463C153.559 38.3153 152.472 38.2832 151.543 38.15C150.371 37.9819 149.582 37.5403 149.177 36.8252C148.782 36.1116 148.708 35.0508 148.954 33.6429C149.443 30.848 150.833 29.6148 153.124 29.9434C155.342 30.2613 156.24 31.6234 155.819 34.0295L155.493 35.2429L150.583 34.5389C150.48 35.1918 150.539 35.6904 150.76 36.0344C150.981 36.3785 151.467 36.6043 152.216 36.7118C152.966 36.8193 153.742 36.8983 154.545 36.9488ZM154.141 33.6919C154.277 32.9144 154.245 32.3551 154.045 32.0141C153.857 31.664 153.468 31.4466 152.876 31.3618C152.285 31.277 151.824 31.3778 151.492 31.6642C151.171 31.9521 150.94 32.4682 150.799 33.2127L154.141 33.6919ZM163.292 33.2432C162.075 32.8964 161.187 32.6829 160.628 32.6026C160.068 32.5224 159.666 32.5347 159.42 32.6394C159.187 32.7353 159.045 32.925 158.996 33.2087C158.946 33.4924 159.027 33.7087 159.239 33.8576C159.462 34.008 159.998 34.2248 160.846 34.5081C161.708 34.7824 162.294 35.1089 162.607 35.4876C162.92 35.8663 163.003 36.4707 162.858 37.3007C162.713 38.1308 162.337 38.7016 161.731 39.0131C161.135 39.3262 160.325 39.4093 159.3 39.2624C158.656 39.1701 157.859 38.9642 156.908 38.6447L156.431 38.4955L156.745 37.0704C157.983 37.4202 158.881 37.6352 159.441 37.7155C160.001 37.7957 160.409 37.7842 160.665 37.6809C160.932 37.5792 161.092 37.3707 161.148 37.0555C161.203 36.7402 161.124 36.5082 160.912 36.3593C160.713 36.2014 160.192 35.9921 159.35 35.7314C158.52 35.4616 157.932 35.1456 157.584 34.7834C157.236 34.4211 157.133 33.8355 157.274 33.0264C157.416 32.2174 157.796 31.6526 158.415 31.3321C159.044 31.013 159.792 30.9156 160.658 31.0398C161.333 31.1367 162.148 31.3396 163.1 31.6485L163.574 31.8135L163.292 33.2432ZM170.303 32.5845L172.014 32.8298L170.635 40.7101L168.925 40.4648L169.01 39.9762C168.162 40.307 167.411 40.4254 166.756 40.3316C165.669 40.1756 164.991 39.7822 164.722 39.1513C164.455 38.5099 164.45 37.459 164.705 35.9985L165.425 31.885L167.151 32.1325L166.429 36.2618C166.264 37.2074 166.232 37.8545 166.333 38.2029C166.434 38.5513 166.775 38.7672 167.356 38.8505C167.926 38.9322 168.467 38.9021 168.979 38.7601L169.233 38.6996L170.303 32.5845ZM174.451 41.2574L172.725 41.0098L174.104 33.1295L175.814 33.3748L175.729 33.8633C176.556 33.5295 177.281 33.4073 177.903 33.4966C178.822 33.6284 179.448 33.9819 179.78 34.5573C180.831 34.1803 181.831 34.0599 182.782 34.1961C183.732 34.3324 184.351 34.7228 184.639 35.3672C184.928 36.0011 184.952 37.0115 184.709 38.3985L183.97 42.6223L182.26 42.377L182.99 38.2005C183.139 37.3494 183.155 36.7323 183.038 36.3494C182.932 35.9679 182.604 35.7378 182.055 35.6591C181.58 35.5909 181.049 35.6226 180.463 35.754L180.175 35.8257C180.223 36.048 180.147 36.7265 179.949 37.8612L179.235 41.9432L177.524 41.698L178.233 37.6475C178.396 36.7123 178.425 36.054 178.318 35.6726C178.212 35.2911 177.874 35.0595 177.303 34.9777C176.776 34.902 176.266 34.9367 175.775 35.0817L175.521 35.1422L174.451 41.2574ZM191.882 42.3028L192.334 42.3191L192.142 43.6003C190.896 43.6694 189.809 43.6373 188.88 43.504C187.708 43.336 186.919 42.8944 186.514 42.1792C186.119 41.4656 186.045 40.4048 186.291 38.9969C186.78 36.202 188.17 34.9688 190.461 35.2974C192.679 35.6154 193.577 36.9774 193.156 39.3835L192.83 40.597L187.92 39.8929C187.817 40.5459 187.876 41.0444 188.097 41.3884C188.318 41.7325 188.804 41.9583 189.553 42.0658C190.303 42.1733 191.079 42.2523 191.882 42.3028ZM191.478 39.046C191.614 38.2684 191.582 37.7091 191.382 37.3681C191.194 37.0181 190.804 36.8006 190.213 36.7159C189.622 36.6311 189.16 36.7319 188.829 37.0182C188.508 37.3061 188.277 37.8223 188.136 38.5667L191.478 39.046Z" fill="black"/>
<rect width="164.271" height="5.2958" transform="matrix(0.987496 0.157646 -0.191163 0.981558 61.2229 37.5205)" fill="black"/>
<rect width="164.271" height="5.2958" transform="matrix(0.987496 0.157646 -0.191163 0.981558 55.6475 63.3676)" fill="black"/>
<rect width="164.271" height="5.2958" transform="matrix(0.987496 0.157646 -0.191163 0.981558 51.7195 89.2318)" fill="black"/>
<rect width="164.271" height="5.2958" transform="matrix(0.987496 0.157646 -0.191163 0.981558 46.006 115.096)" fill="black"/>
<rect width="164.271" height="5.2958" transform="matrix(0.987496 0.157646 -0.191163 0.981558 40.2925 140.96)" fill="black"/>
<rect width="164.271" height="5.2958" transform="matrix(0.987496 0.157646 -0.191163 0.981558 34.579 166.825)" fill="black"/>
<rect width="164.271" height="5.2958" transform="matrix(0.987496 0.157646 -0.191163 0.981558 28.8655 192.689)" fill="black"/>
<rect width="164.271" height="5.2958" transform="matrix(0.987496 0.157646 -0.191163 0.981558 23.1521 218.553)" fill="black"/>
<defs>
<filter id="filter0_d" x="0" y="0" width="261" height="289" filterUnits="userSpaceOnUse" color-interpolation-filters="sRGB">
<feFlood flood-opacity="0" result="BackgroundImageFix"/>
<feColorMatrix in="SourceAlpha" type="matrix" values="0 0 0 0 0 0 0 0 0 0 0 0 0 0 0 0 0 0 127 0"/>
<feOffset dx="4" dy="11"/>
<feGaussianBlur stdDeviation="2"/>
<feColorMatrix type="matrix" values="0 0 0 0 0 0 0 0 0 0 0 0 0 0 0 0 0 0 0.25 0"/>
<feBlend mode="normal" in2="BackgroundImageFix" result="effect1_dropShadow"/>
<feBlend mode="normal" in="SourceGraphic" in2="effect1_dropShadow" result="shape"/>
</filter>
</defs>
</svg>
