<svg width="36" height="36" viewBox="0 0 36 36" fill="none" xmlns="http://www.w3.org/2000/svg">
<g clip-path="url(#clip0)">
<path d="M17.9069 0.0234715C16.4008 0.0276055 14.901 0.218436 13.4418 0.591597C6.42182 2.3376 0.849697 8.69497 0.135322 15.9062C-0.750053 22.7271 2.70145 29.8348 8.60095 33.3561C14.3969 36.9831 22.2416 36.838 27.9138 33.0231C33.0123 29.7122 36.1815 23.6822 35.9947 17.5937C35.9081 11.5716 32.5263 5.7171 27.3513 2.62335C24.5332 0.882972 21.2178 0.00997153 17.9069 0.0223465V0.0234715ZM17.8068 2.56597C25.2239 2.5536 32.4903 8.28997 33.234 15.9546C34.6526 24.445 27.6033 33.076 19.0016 33.328C10.8217 34.1425 2.9107 27.2046 2.6767 18.9898C2.06807 12.34 6.4567 5.73622 12.7252 3.53797C14.3414 2.89421 16.066 2.56617 17.8057 2.5716L17.8068 2.56597ZM25.4478 7.40685C21.4158 10.5343 17.5548 13.8688 13.6117 17.092C15.4162 17.1145 17.2331 17.1145 19.0432 17.1021C21.1582 13.8565 23.3328 10.6525 25.4478 7.40572V7.40685ZM16.9518 18.8852C14.8368 22.1376 12.6577 25.3472 10.5404 28.5996C14.5848 25.4766 18.4278 22.1196 22.3946 18.9145C20.58 18.8939 18.7654 18.8845 16.9507 18.8863L16.9518 18.8852Z" fill="black"/>
</g>
<defs>
<clipPath id="clip0">
<rect width="36" height="36" fill="white"/>
</clipPath>
</defs>
</svg>
