<svg width="36" height="36" viewBox="0 0 36 36" fill="none" xmlns="http://www.w3.org/2000/svg">
<path d="M0 18V36H36V0H0V18Z" fill="#007ACC"/>
<path d="M7.96098 18.1196L7.94958 19.5938H12.6352V32.9082H15.9497V19.5938H20.6354V18.1482C20.6354 17.348 20.6182 16.6795 20.5954 16.6623C20.5783 16.6396 17.7268 16.628 14.2697 16.6338L7.97827 16.651L7.96112 18.1195L7.96098 18.1196Z" fill="white"/>
<path d="M29.0485 16.6086C29.9627 16.8373 30.6599 17.2428 31.2999 17.9057C31.6314 18.2601 32.1227 18.9059 32.1628 19.0601C32.174 19.1058 30.6084 20.1573 29.6599 20.7458C29.6256 20.7687 29.4884 20.6201 29.3341 20.3914C28.8713 19.7173 28.3856 19.4257 27.6427 19.3744C26.5514 19.3 25.8484 19.8715 25.8542 20.8257C25.8542 21.1058 25.8941 21.2714 26.0085 21.5001C26.2485 21.9972 26.6941 22.2944 28.0942 22.9C30.6713 24.0087 31.7741 24.7401 32.4599 25.78C33.2256 26.9402 33.397 28.7915 32.877 30.1686C32.3056 31.6657 30.8886 32.683 28.8941 33.0201C28.277 33.1287 26.8142 33.1115 26.1513 32.9916C24.7057 32.7343 23.3342 32.0201 22.4885 31.083C22.157 30.7172 21.5113 29.7629 21.5513 29.6943C21.5685 29.6715 21.717 29.5801 21.8827 29.483C22.0427 29.3916 22.6485 29.0428 23.2199 28.7115L24.2542 28.1114L24.4713 28.4315C24.7742 28.8943 25.437 29.5287 25.837 29.74C26.9855 30.3458 28.5628 30.2601 29.3399 29.5628C29.6713 29.2601 29.8084 28.9458 29.8084 28.4828C29.8084 28.0657 29.757 27.8829 29.5398 27.5688C29.26 27.1687 28.6885 26.8315 27.0655 26.1288C25.2084 25.3286 24.4084 24.8315 23.677 24.0429C23.2542 23.5859 22.8541 22.8543 22.6884 22.2429C22.5513 21.7344 22.5169 20.46 22.6256 19.9458C23.0085 18.1514 24.3627 16.9001 26.317 16.5286C26.9512 16.4086 28.4255 16.4543 29.0485 16.6087V16.6086Z" fill="white"/>
</svg>
